<svg version="1.1" viewBox="0 0 640 640" xmlns="http://www.w3.org/2000/svg" xmlns:xlink="http://www.w3.org/1999/xlink" overflow="hidden"><path d=" M 236.3 107.1 C 247.9 96 265 92.9 279.7 99.2 C 294.4 105.5 304 120 304 136 L 304 272.3 L 476.3 107.2 C 487.9 96 505 92.9 519.7 99.2 C 534.4 105.5 544 120 544 136 L 544 504 C 544 520 534.4 534.5 519.7 540.8 C 505 547.1 487.9 544 476.3 532.9 L 304 367.7 L 304 504 C 304 520 294.4 534.5 279.7 540.8 C 265 547.1 247.9 544 236.3 532.9 L 44.3 348.9 C 36.5 341.3 32 330.9 32 320 C 32 309.1 36.5 298.7 44.3 291.1 L 236.3 107.1 Z" stroke="#591367" stroke-width="20" stroke-dasharray="" stroke-dashoffset="1" stroke-opacity="1" fill="#7030A0" fill-opacity="1"/></svg>